# xmcd
#
# Track frame offsets:
#	170
#	12977
#	55451
#	72812
#	97883
#	111729
#	143917
#	158946
#	180835
#	196189
#	211701
#	232023
#	253042
#	268906
#
# Disc length: 3802 seconds
#
# Revision: 0
# Processed by: cddbd v1.5.1PL0 Copyright (c) Steve Scherf et al.
# Submitted via: dBpowerAMP V4.0
#
DISCID=c70ed80e
DTITLE=Huberrt Sumlin - Made in Argentina 1993
DYEAR=1993
DGENRE=Blues
TTITLE0=Hubert's Shuffle
TTITLE1=Blues for Argentina
TTITLE2=Killing Floor
TTITLE3=Sitting on Top of the World
TTITLE4=Howlin' for my Baby
TTITLE5=Blues in my Time
TTITLE6=Don't Worry
TTITLE7=Road of No Return
TTITLE8=Manish Boy
TTITLE9=Rockin' with my Baby
TTITLE10=I'll Help You
TTITLE11=Last Night
TTITLE12=I Did What I Could
TTITLE13=Chicken Shack
EXTD=gravado nos dias 16, 17, 18 e 19 de dezembro de 1993 no El Samovar, Buenos Aires.
EXTT0=
EXTT1=
EXTT2=
EXTT3=
EXTT4=
EXTT5=
EXTT6=
EXTT7=
EXTT8=
EXTT9=
EXTT10=
EXTT11=
EXTT12=
EXTT13=
PLAYORDER=
